<svg width="22" height="22" viewBox="0 0 22 22" fill="none" xmlns="http://www.w3.org/2000/svg">
    <path d="M15.2292 3.5C15.2292 1.70507 13.7741 0.25 11.9792 0.25H3.3125C1.51757 0.25 0.0625 1.70507 0.0625 3.5V14.875H11.9792C13.7741 14.875 15.2292 13.4199 15.2292 11.625V3.5Z" fill="white"/>
    <path d="M0.0625 16.5H6.02083L0.0625 21.9167V16.5Z" fill="white"/>
    <path d="M21.1875 7.29166C21.1875 4.8984 19.2474 2.95833 16.8542 2.95833L16.8541 12.3142C16.8541 14.626 14.9801 16.5 12.6683 16.5H7.64583V18.6667H12.6683C16.1767 18.6667 19.0208 15.8226 19.0208 12.3142L19.0208 11.0453C20.3161 10.2961 21.1875 8.89564 21.1875 7.29166Z" fill="white"/>
</svg>
